<?xml version="1.0" encoding="UTF-8"?>
<svg width="92px" height="92px" viewBox="0 0 92 92" version="1.1" xmlns="http://www.w3.org/2000/svg" xmlns:xlink="http://www.w3.org/1999/xlink">
    <title>logo_notthefinaloneyet 2</title>
    <g id="Page-1" stroke="none" stroke-width="1" fill="none" fill-rule="evenodd">
        <g id="logo_notthefinaloneyet" fill="#4D4D4D" fill-rule="nonzero">
            <circle id="Oval" cx="46" cy="46" r="43"></circle>
        </g>
        <path d="M38.082505,65 C38.2614314,65 38.4135189,64.9366667 38.5387674,64.81 C38.6640159,64.6833333 38.7266402,64.5295238 38.7266402,64.3485714 L38.7266402,38.6714286 C38.7266402,38.5266667 38.7624254,38.4452381 38.833996,38.4271429 C38.9055666,38.4090476 38.9771372,38.4542857 39.0487078,38.5628571 L44.7385686,48.0085714 C44.8817097,48.2980952 45.1322068,48.4428571 45.4900596,48.4428571 L46.5099404,48.4428571 C46.8677932,48.4428571 47.1182903,48.2980952 47.2614314,48.0085714 L52.9512922,38.5085714 C53.0228628,38.4 53.0944334,38.3547619 53.166004,38.3728571 C53.2375746,38.3909524 53.2733598,38.472381 53.2733598,38.6171429 L53.2733598,64.3485714 C53.2733598,64.5295238 53.3359841,64.6833333 53.4612326,64.81 C53.5864811,64.9366667 53.7385686,65 53.917495,65 L58.8558648,65 C59.0347913,65 59.1868787,64.9366667 59.3121272,64.81 C59.4373757,64.6833333 59.5,64.5295238 59.5,64.3485714 L59.5,27.6514286 C59.5,27.4704762 59.4373757,27.3166667 59.3121272,27.19 C59.1868787,27.0633333 59.0347913,27 58.8558648,27 L53.8638171,27 C53.5059642,27 53.2554672,27.1447619 53.112326,27.4342857 L46.1878728,38.78 C46.0805169,38.9971429 45.973161,38.9971429 45.8658052,38.78 L38.833996,27.4342857 C38.6908549,27.1447619 38.4403579,27 38.082505,27 L33.1441352,27 C32.9652087,27 32.8131213,27.0633333 32.6878728,27.19 C32.5626243,27.3166667 32.5,27.4704762 32.5,27.6514286 L32.5,64.3485714 C32.5,64.5295238 32.5626243,64.6833333 32.6878728,64.81 C32.8131213,64.9366667 32.9652087,65 33.1441352,65 L38.082505,65 Z" id="M" fill="#FFE353" fill-rule="nonzero"></path>
    </g>
</svg>