<?xml version="1.0" encoding="UTF-8"?>
<svg width="56px" height="56px" viewBox="0 0 56 56" version="1.1" xmlns="http://www.w3.org/2000/svg" xmlns:xlink="http://www.w3.org/1999/xlink">
    <title>logo_notthefinaloneyet_56px</title>
    <g id="Page-1" stroke="none" stroke-width="1" fill="none" fill-rule="evenodd">
        <g id="logo_notthefinaloneyet_56px" fill-rule="nonzero">
            <circle id="Oval" fill="#4D4D4D" cx="28" cy="28" r="28"></circle>
            <path d="M22.4284294,41 C22.5543406,41 22.6613651,40.9566667 22.749503,40.87 C22.8376408,40.7833333 22.8817097,40.6780952 22.8817097,40.5542857 L22.8817097,40.5542857 L22.8817097,22.9857143 C22.8817097,22.8866667 22.906892,22.8309524 22.9572565,22.8185714 C23.0076209,22.8061905 23.0579854,22.8371429 23.1083499,22.9114286 L23.1083499,22.9114286 L27.112326,29.3742857 C27.213055,29.572381 27.3893307,29.6714286 27.6411531,29.6714286 L27.6411531,29.6714286 L28.3588469,29.6714286 C28.6106693,29.6714286 28.786945,29.572381 28.887674,29.3742857 L28.887674,29.3742857 L32.8916501,22.8742857 C32.9420146,22.8 32.9923791,22.7690476 33.0427435,22.7814286 C33.093108,22.7938095 33.1182903,22.8495238 33.1182903,22.9485714 L33.1182903,22.9485714 L33.1182903,40.5542857 C33.1182903,40.6780952 33.1623592,40.7833333 33.250497,40.87 C33.3386349,40.9566667 33.4456594,41 33.5715706,41 L33.5715706,41 L37.0467197,41 C37.1726309,41 37.2796554,40.9566667 37.3677932,40.87 C37.4559311,40.7833333 37.5,40.6780952 37.5,40.5542857 L37.5,40.5542857 L37.5,15.4457143 C37.5,15.3219048 37.4559311,15.2166667 37.3677932,15.13 C37.2796554,15.0433333 37.1726309,15 37.0467197,15 L37.0467197,15 L33.5337972,15 C33.2819748,15 33.1056991,15.0990476 33.0049702,15.2971429 L33.0049702,15.2971429 L28.1322068,23.06 C28.05666,23.2085714 27.9811133,23.2085714 27.9055666,23.06 L27.9055666,23.06 L22.9572565,15.2971429 C22.8565275,15.0990476 22.6802518,15 22.4284294,15 L22.4284294,15 L18.9532803,15 C18.8273691,15 18.7203446,15.0433333 18.6322068,15.13 C18.5440689,15.2166667 18.5,15.3219048 18.5,15.4457143 L18.5,15.4457143 L18.5,40.5542857 C18.5,40.6780952 18.5440689,40.7833333 18.6322068,40.87 C18.7203446,40.9566667 18.8273691,41 18.9532803,41 L18.9532803,41 L22.4284294,41 Z" id="M" fill="#FFE353"></path>
        </g>
    </g>
</svg>