<?xml version="1.0" encoding="UTF-8"?>
<svg width="86px" height="86px" viewBox="0 0 86 86" version="1.1" xmlns="http://www.w3.org/2000/svg" xmlns:xlink="http://www.w3.org/1999/xlink">
    <title>Slice 1</title>
    <g id="Page-1" stroke="none" stroke-width="1" fill="none" fill-rule="evenodd">
        <g id="logo_notthefinaloneyet" fill-rule="nonzero">
            <circle id="Oval" fill="#4D4D4D" cx="43" cy="43" r="43"></circle>
            <g id="M" transform="translate(33.000000, 31.000000)">
                <g id="path-1-link" fill="#000000">
                    <path d="M2.72,28 C2.9866667,28 3.12,27.8666667 3.12,27.6 L3.12,27.6 L3.12,5.88 C3.12,5.8 3.1466667,5.7466667 3.2,5.72 C3.2533333,5.6933333 3.2933333,5.72 3.32,5.8 L3.32,5.8 L8.68,15 C8.8133333,15.1866667 8.9733333,15.28 9.16,15.28 L9.16,15.28 L9.6,15.28 C9.7866667,15.28 9.9466667,15.1866667 10.08,15 L10.08,15 L15.4,5.76 C15.4266667,5.68 15.4666667,5.6533333 15.52,5.68 C15.5733333,5.7066667 15.6,5.76 15.6,5.84 L15.6,5.84 L15.6,27.6 C15.6,27.8666667 15.7333333,28 16,28 L16,28 L18.04,28 C18.3066667,28 18.44,27.8666667 18.44,27.6 L18.44,27.6 L18.44,0.4 C18.44,0.1333333 18.3066667,0 18.04,0 L18.04,0 L15.96,0 C15.7733333,0 15.6133333,0.0933333 15.48,0.28 L15.48,0.28 L9.52,10.56 C9.4933333,10.5866667 9.4533333,10.6 9.4,10.6 C9.3466667,10.6 9.3066667,10.5866667 9.28,10.56 L9.28,10.56 L3.24,0.28 C3.1066667,0.0933333 2.9466667,0 2.76,0 L2.76,0 L0.68,0 C0.4133333,0 0.28,0.1333333 0.28,0.4 L0.28,0.4 L0.28,27.6 C0.28,27.8666667 0.4133333,28 0.68,28 L0.68,28 L2.72,28 Z" id="path-1"></path>
                </g>
                <g id="path-1-link" fill="#FFFAE2">
                    <path d="M2.72,28 C2.9866667,28 3.12,27.8666667 3.12,27.6 L3.12,27.6 L3.12,5.88 C3.12,5.8 3.1466667,5.7466667 3.2,5.72 C3.2533333,5.6933333 3.2933333,5.72 3.32,5.8 L3.32,5.8 L8.68,15 C8.8133333,15.1866667 8.9733333,15.28 9.16,15.28 L9.16,15.28 L9.6,15.28 C9.7866667,15.28 9.9466667,15.1866667 10.08,15 L10.08,15 L15.4,5.76 C15.4266667,5.68 15.4666667,5.6533333 15.52,5.68 C15.5733333,5.7066667 15.6,5.76 15.6,5.84 L15.6,5.84 L15.6,27.6 C15.6,27.8666667 15.7333333,28 16,28 L16,28 L18.04,28 C18.3066667,28 18.44,27.8666667 18.44,27.6 L18.44,27.6 L18.44,0.4 C18.44,0.1333333 18.3066667,0 18.04,0 L18.04,0 L15.96,0 C15.7733333,0 15.6133333,0.0933333 15.48,0.28 L15.48,0.28 L9.52,10.56 C9.4933333,10.5866667 9.4533333,10.6 9.4,10.6 C9.3466667,10.6 9.3066667,10.5866667 9.28,10.56 L9.28,10.56 L3.24,0.28 C3.1066667,0.0933333 2.9466667,0 2.76,0 L2.76,0 L0.68,0 C0.4133333,0 0.28,0.1333333 0.28,0.4 L0.28,0.4 L0.28,27.6 C0.28,27.8666667 0.4133333,28 0.68,28 L0.68,28 L2.72,28 Z" id="path-1"></path>
                </g>
            </g>
        </g>
    </g>
</svg>